<mxfile host="app.diagrams.net" modified="2022-11-01T04:41:57.725Z" agent="5.0 (Macintosh; Intel Mac OS X 10_15_7) AppleWebKit/537.36 (KHTML, like Gecko) Chrome/106.0.0.0 Safari/537.36" etag="Xyj3us2ZBx1yWD3nSCFa" version="20.5.1" type="github">
  <diagram id="8fGyhkze5-X_S77cJ8zE" name="Page-1">
    <mxGraphModel dx="1248" dy="741" grid="1" gridSize="10" guides="1" tooltips="1" connect="1" arrows="1" fold="1" page="1" pageScale="1" pageWidth="850" pageHeight="1100" math="0" shadow="0">
      <root>
        <mxCell id="0" />
        <mxCell id="1" parent="0" />
        <mxCell id="4OLkmAfeVT3sMfob8u-y-1" value="Actor" style="shape=umlActor;verticalLabelPosition=bottom;verticalAlign=top;html=1;outlineConnect=0;" vertex="1" parent="1">
          <mxGeometry x="80" y="350" width="30" height="60" as="geometry" />
        </mxCell>
        <mxCell id="4OLkmAfeVT3sMfob8u-y-14" value="Contacts Address Book App" style="shape=umlFrame;whiteSpace=wrap;html=1;width=200;height=30;" vertex="1" parent="1">
          <mxGeometry x="170" y="130" width="850" height="710" as="geometry" />
        </mxCell>
        <mxCell id="4OLkmAfeVT3sMfob8u-y-17" value="Add New Contact" style="ellipse;whiteSpace=wrap;html=1;" vertex="1" parent="1">
          <mxGeometry x="270" y="200" width="140" height="70" as="geometry" />
        </mxCell>
        <mxCell id="4OLkmAfeVT3sMfob8u-y-18" value="Add Name" style="ellipse;whiteSpace=wrap;html=1;" vertex="1" parent="1">
          <mxGeometry x="280" y="320" width="140" height="70" as="geometry" />
        </mxCell>
        <mxCell id="4OLkmAfeVT3sMfob8u-y-19" value="Search for Contacts" style="ellipse;whiteSpace=wrap;html=1;" vertex="1" parent="1">
          <mxGeometry x="270" y="410" width="140" height="70" as="geometry" />
        </mxCell>
        <mxCell id="4OLkmAfeVT3sMfob8u-y-20" value="Add Email" style="ellipse;whiteSpace=wrap;html=1;" vertex="1" parent="1">
          <mxGeometry x="750" y="190" width="145" height="70" as="geometry" />
        </mxCell>
        <mxCell id="4OLkmAfeVT3sMfob8u-y-21" value="Text Tone" style="ellipse;whiteSpace=wrap;html=1;" vertex="1" parent="1">
          <mxGeometry x="610" y="250" width="140" height="70" as="geometry" />
        </mxCell>
        <mxCell id="4OLkmAfeVT3sMfob8u-y-22" value="Open Contact" style="ellipse;whiteSpace=wrap;html=1;" vertex="1" parent="1">
          <mxGeometry x="270" y="530" width="140" height="70" as="geometry" />
        </mxCell>
        <mxCell id="4OLkmAfeVT3sMfob8u-y-23" value="Add To Favorite" style="ellipse;whiteSpace=wrap;html=1;" vertex="1" parent="1">
          <mxGeometry x="510" y="440" width="140" height="70" as="geometry" />
        </mxCell>
        <mxCell id="4OLkmAfeVT3sMfob8u-y-24" value="Edit Contact" style="ellipse;whiteSpace=wrap;html=1;" vertex="1" parent="1">
          <mxGeometry x="450" y="590" width="140" height="70" as="geometry" />
        </mxCell>
        <mxCell id="4OLkmAfeVT3sMfob8u-y-25" value="Add Social Profile" style="ellipse;whiteSpace=wrap;html=1;" vertex="1" parent="1">
          <mxGeometry x="690" y="360" width="140" height="70" as="geometry" />
        </mxCell>
        <mxCell id="4OLkmAfeVT3sMfob8u-y-26" value="Share Contact" style="ellipse;whiteSpace=wrap;html=1;" vertex="1" parent="1">
          <mxGeometry x="820" y="570" width="140" height="70" as="geometry" />
        </mxCell>
        <mxCell id="4OLkmAfeVT3sMfob8u-y-27" value="Notes" style="ellipse;whiteSpace=wrap;html=1;" vertex="1" parent="1">
          <mxGeometry x="610" y="130" width="140" height="70" as="geometry" />
        </mxCell>
        <mxCell id="4OLkmAfeVT3sMfob8u-y-28" value="Add Related Notes" style="ellipse;whiteSpace=wrap;html=1;" vertex="1" parent="1">
          <mxGeometry x="480" y="350" width="140" height="70" as="geometry" />
        </mxCell>
        <mxCell id="4OLkmAfeVT3sMfob8u-y-47" value="" style="endArrow=none;html=1;rounded=0;" edge="1" parent="1" target="4OLkmAfeVT3sMfob8u-y-17">
          <mxGeometry relative="1" as="geometry">
            <mxPoint x="110" y="370" as="sourcePoint" />
            <mxPoint x="270" y="370" as="targetPoint" />
          </mxGeometry>
        </mxCell>
        <mxCell id="4OLkmAfeVT3sMfob8u-y-48" value="" style="endArrow=none;html=1;rounded=0;" edge="1" parent="1" target="4OLkmAfeVT3sMfob8u-y-19">
          <mxGeometry relative="1" as="geometry">
            <mxPoint x="110" y="370" as="sourcePoint" />
            <mxPoint x="304.6073481080166" y="271.6435130670337" as="targetPoint" />
          </mxGeometry>
        </mxCell>
        <mxCell id="4OLkmAfeVT3sMfob8u-y-50" value="" style="endArrow=none;html=1;rounded=0;entryX=0;entryY=0;entryDx=0;entryDy=0;exitX=1;exitY=0.3333333333333333;exitDx=0;exitDy=0;exitPerimeter=0;" edge="1" parent="1" source="4OLkmAfeVT3sMfob8u-y-1" target="4OLkmAfeVT3sMfob8u-y-22">
          <mxGeometry relative="1" as="geometry">
            <mxPoint x="130" y="390" as="sourcePoint" />
            <mxPoint x="301.3672582212937" y="445.8806276808566" as="targetPoint" />
          </mxGeometry>
        </mxCell>
        <mxCell id="4OLkmAfeVT3sMfob8u-y-54" value="&amp;lt;&amp;lt;extend&amp;gt;&amp;gt;" style="html=1;verticalAlign=bottom;endArrow=open;dashed=1;endSize=8;rounded=0;entryX=0;entryY=0.5;entryDx=0;entryDy=0;" edge="1" parent="1" source="4OLkmAfeVT3sMfob8u-y-22" target="4OLkmAfeVT3sMfob8u-y-24">
          <mxGeometry relative="1" as="geometry">
            <mxPoint x="470" y="560" as="sourcePoint" />
            <mxPoint x="410" y="560" as="targetPoint" />
          </mxGeometry>
        </mxCell>
        <mxCell id="4OLkmAfeVT3sMfob8u-y-55" value="&amp;lt;&amp;lt;extend&amp;gt;&amp;gt;" style="html=1;verticalAlign=bottom;endArrow=open;dashed=1;endSize=8;rounded=0;" edge="1" parent="1" source="4OLkmAfeVT3sMfob8u-y-22" target="4OLkmAfeVT3sMfob8u-y-23">
          <mxGeometry relative="1" as="geometry">
            <mxPoint x="350" y="529" as="sourcePoint" />
            <mxPoint x="440" y="529" as="targetPoint" />
          </mxGeometry>
        </mxCell>
        <mxCell id="4OLkmAfeVT3sMfob8u-y-56" value="&amp;lt;&amp;lt;extend&amp;gt;&amp;gt;" style="html=1;verticalAlign=bottom;endArrow=open;dashed=1;endSize=8;rounded=0;" edge="1" parent="1" source="4OLkmAfeVT3sMfob8u-y-22" target="4OLkmAfeVT3sMfob8u-y-26">
          <mxGeometry relative="1" as="geometry">
            <mxPoint x="430" y="585" as="sourcePoint" />
            <mxPoint x="520" y="585" as="targetPoint" />
          </mxGeometry>
        </mxCell>
        <mxCell id="4OLkmAfeVT3sMfob8u-y-57" value="Open My Contact" style="ellipse;whiteSpace=wrap;html=1;" vertex="1" parent="1">
          <mxGeometry x="270" y="680" width="140" height="70" as="geometry" />
        </mxCell>
        <mxCell id="4OLkmAfeVT3sMfob8u-y-60" value="&amp;lt;&amp;lt;include&amp;gt;&amp;gt;" style="html=1;verticalAlign=bottom;endArrow=open;dashed=1;endSize=8;rounded=0;" edge="1" parent="1" source="4OLkmAfeVT3sMfob8u-y-17" target="4OLkmAfeVT3sMfob8u-y-18">
          <mxGeometry relative="1" as="geometry">
            <mxPoint x="419.99637884219135" y="410.0045288275081" as="sourcePoint" />
            <mxPoint x="556.7492101859478" y="347.2803619981072" as="targetPoint" />
          </mxGeometry>
        </mxCell>
        <mxCell id="4OLkmAfeVT3sMfob8u-y-61" value="&amp;lt;&amp;lt;include&amp;gt;&amp;gt;" style="html=1;verticalAlign=bottom;endArrow=open;dashed=1;endSize=8;rounded=0;entryX=0;entryY=0.5;entryDx=0;entryDy=0;exitX=1;exitY=0.5;exitDx=0;exitDy=0;" edge="1" parent="1" source="4OLkmAfeVT3sMfob8u-y-17" target="4OLkmAfeVT3sMfob8u-y-20">
          <mxGeometry relative="1" as="geometry">
            <mxPoint x="352.8799125267958" y="279.97036639680664" as="sourcePoint" />
            <mxPoint x="357.0858618701818" y="330.03034244218" as="targetPoint" />
          </mxGeometry>
        </mxCell>
        <mxCell id="4OLkmAfeVT3sMfob8u-y-62" value="&amp;lt;&amp;lt;include&amp;gt;&amp;gt;" style="html=1;verticalAlign=bottom;endArrow=open;dashed=1;endSize=8;rounded=0;entryX=0.5;entryY=0;entryDx=0;entryDy=0;exitX=1;exitY=0.5;exitDx=0;exitDy=0;" edge="1" parent="1" target="4OLkmAfeVT3sMfob8u-y-21">
          <mxGeometry relative="1" as="geometry">
            <mxPoint x="420" y="245" as="sourcePoint" />
            <mxPoint x="500.5025253169417" y="269.74873734152914" as="targetPoint" />
          </mxGeometry>
        </mxCell>
        <mxCell id="4OLkmAfeVT3sMfob8u-y-63" value="&amp;lt;&amp;lt;include&amp;gt;&amp;gt;" style="html=1;verticalAlign=bottom;endArrow=open;dashed=1;endSize=8;rounded=0;exitX=1;exitY=0;exitDx=0;exitDy=0;" edge="1" parent="1" source="4OLkmAfeVT3sMfob8u-y-17" target="4OLkmAfeVT3sMfob8u-y-27">
          <mxGeometry relative="1" as="geometry">
            <mxPoint x="430" y="255" as="sourcePoint" />
            <mxPoint x="550" y="310" as="targetPoint" />
          </mxGeometry>
        </mxCell>
        <mxCell id="4OLkmAfeVT3sMfob8u-y-64" value="&amp;lt;&amp;lt;include&amp;gt;&amp;gt;" style="html=1;verticalAlign=bottom;endArrow=open;dashed=1;endSize=8;rounded=0;exitX=1;exitY=1;exitDx=0;exitDy=0;" edge="1" parent="1" source="4OLkmAfeVT3sMfob8u-y-17" target="4OLkmAfeVT3sMfob8u-y-28">
          <mxGeometry relative="1" as="geometry">
            <mxPoint x="440" y="265" as="sourcePoint" />
            <mxPoint x="651.5538310145812" y="242.33351810558054" as="targetPoint" />
          </mxGeometry>
        </mxCell>
        <mxCell id="4OLkmAfeVT3sMfob8u-y-65" value="&amp;lt;&amp;lt;include&amp;gt;&amp;gt;" style="html=1;verticalAlign=bottom;endArrow=open;dashed=1;endSize=8;rounded=0;" edge="1" parent="1" source="4OLkmAfeVT3sMfob8u-y-17" target="4OLkmAfeVT3sMfob8u-y-25">
          <mxGeometry relative="1" as="geometry">
            <mxPoint x="450" y="275" as="sourcePoint" />
            <mxPoint x="661.5538310145812" y="252.33351810558054" as="targetPoint" />
          </mxGeometry>
        </mxCell>
        <mxCell id="4OLkmAfeVT3sMfob8u-y-68" value="" style="endArrow=none;html=1;rounded=0;exitX=1;exitY=0.3333333333333333;exitDx=0;exitDy=0;exitPerimeter=0;" edge="1" parent="1" source="4OLkmAfeVT3sMfob8u-y-1" target="4OLkmAfeVT3sMfob8u-y-57">
          <mxGeometry relative="1" as="geometry">
            <mxPoint x="120" y="380" as="sourcePoint" />
            <mxPoint x="300.5025253169417" y="550.2512626584708" as="targetPoint" />
          </mxGeometry>
        </mxCell>
        <mxCell id="4OLkmAfeVT3sMfob8u-y-69" value="&amp;lt;&amp;lt;extend&amp;gt;&amp;gt;" style="html=1;verticalAlign=bottom;endArrow=open;dashed=1;endSize=8;rounded=0;" edge="1" parent="1" source="4OLkmAfeVT3sMfob8u-y-57" target="4OLkmAfeVT3sMfob8u-y-24">
          <mxGeometry relative="1" as="geometry">
            <mxPoint x="419.04757466825095" y="580.7539645556876" as="sourcePoint" />
            <mxPoint x="590" y="595" as="targetPoint" />
          </mxGeometry>
        </mxCell>
        <mxCell id="4OLkmAfeVT3sMfob8u-y-70" value="&amp;lt;&amp;lt;extend&amp;gt;&amp;gt;" style="html=1;verticalAlign=bottom;endArrow=open;dashed=1;endSize=8;rounded=0;entryX=0;entryY=1;entryDx=0;entryDy=0;" edge="1" parent="1" source="4OLkmAfeVT3sMfob8u-y-57" target="4OLkmAfeVT3sMfob8u-y-26">
          <mxGeometry relative="1" as="geometry">
            <mxPoint x="418.65205408292763" y="718.1645140956393" as="sourcePoint" />
            <mxPoint x="581.3593527016355" y="701.8640647298364" as="targetPoint" />
          </mxGeometry>
        </mxCell>
        <mxCell id="4OLkmAfeVT3sMfob8u-y-71" value="&amp;lt;&amp;lt;extend&amp;gt;&amp;gt;" style="html=1;verticalAlign=bottom;endArrow=open;dashed=1;endSize=8;rounded=0;exitX=0.5;exitY=1;exitDx=0;exitDy=0;" edge="1" parent="1" source="4OLkmAfeVT3sMfob8u-y-57" target="4OLkmAfeVT3sMfob8u-y-73">
          <mxGeometry relative="1" as="geometry">
            <mxPoint x="416.27409213737997" y="713.7334043366454" as="sourcePoint" />
            <mxPoint x="850.5025253169415" y="639.7487373415292" as="targetPoint" />
          </mxGeometry>
        </mxCell>
        <mxCell id="4OLkmAfeVT3sMfob8u-y-73" value="Show Medical ID" style="ellipse;whiteSpace=wrap;html=1;" vertex="1" parent="1">
          <mxGeometry x="500" y="740" width="140" height="70" as="geometry" />
        </mxCell>
      </root>
    </mxGraphModel>
  </diagram>
</mxfile>
